<svg xmlns="http://www.w3.org/2000/svg" xmlns:xlink="http://www.w3.org/1999/xlink" id="Layer_1" x="0" y="0" enable-background="new -188 192.5 436 177.5" version="1.1" viewBox="-188 192.5 436 177.5" xml:space="preserve"><style type="text/css">.st0{fill:#fff}</style><switch><g><g><path d="M-155,202l-23,27v7.7c0,9.7,9,18.3,17.1,18.3c9.8,0,17.9-8.2,17.9-18c0,9.8,7.9,18,17.6,18s17.4-8.2,17.4-18 c0,9.8,8.4,18,18.1,18c9.8,0,17.9-8.2,17.9-18c0,9.8,7.9,18,17.7,18c9.8,0,17.3-8.2,17.3-18c0,9.8,8.4,18,18.2,18 c9.8,0,17.8-8.2,17.8-18v-8l-25-27C-69.6,201.9-155,202-155,202z" class="st0"/><path d="M21.4,268.7h24.1v71.6H21.4L21.4,268.7L21.4,268.7z M33.6,262.9c-4.1,0-7.2-1-9.4-3.1 c-2.2-2-3.3-4.8-3.3-8.1c0-3.2,1.1-5.9,3.3-8.1c2.2-2.2,5.3-3.3,9.4-3.3c4.1,0,7.2,1.1,9.4,3.3c2.2,2.2,3.3,4.9,3.3,8.1 c0,3.4-1.1,6.1-3.3,8.1C40.8,261.8,37.7,262.9,33.6,262.9 M80.7,341.7c-7,0-12.2-1.9-15.8-5.6c-3.5-3.7-5.3-8.9-5.3-15.6v-33.9 H50v-17.9h9.6v-17.5h24.1v17.5h15.7v17.9H83.8V317c0,2.2,0.5,3.8,1.4,4.7s2.4,1.4,4.3,1.4c2.6,0,5.5-1.2,8.6-3.5l5.5,15.9 c-2.8,1.9-6,3.5-9.6,4.6S85.9,341.7,80.7,341.7 M139.1,341.7c-11.1,0-19.8-3.1-26.1-9.5c-6.4-6.3-9.5-15.5-9.5-27.5 c0-8.7,1.8-16,5.4-22c3.7-6.1,8.3-10.2,13.8-12.4c5.8-2.2,11.2-3.3,16.1-3.3c6.2,0,11.4,1.2,15.6,3.7c4.2,2.5,7.2,5.2,9.2,8.1 c2,2.9,3.4,5.2,4.3,6.8l-16.7,10.8c-1.5-3.2-3.2-5.7-5.1-7.6c-1.8-1.8-4.1-2.8-6.7-2.8c-3.7,0-6.6,1.5-8.7,4.4 c-2.1,2.9-3.2,7.3-3.2,13.2c0,6.4,1.3,11.1,3.8,14.1c2.5,3,6.1,4.5,10.8,4.5c3.7,0,6.8-0.7,9.2-2c2.5-1.4,4.8-3.1,7-5.2l7.7,18 c-2.3,1.9-5.8,3.9-10.3,5.7C151.2,340.7,145.6,341.7,139.1,341.7 M173.6,340.2v-97.1h24.3v29.5c2-1.5,4.5-2.7,7.4-3.9 c2.9-1.1,6.4-1.7,10.5-1.7c8.5,0,14.9,2.4,19.1,7.3c4.2,4.8,6.3,11.7,6.3,20.5v45.4h-24.3v-42.5c0-4.1-0.8-7.1-2.3-8.9 c-1.6-1.9-3.6-2.8-6.1-2.8c-2.1,0-4.1,0.5-6,1.5c-1.8,1-3.4,2-4.7,3.1v49.7L173.6,340.2L173.6,340.2z M-143,250.5 c-0.9,1.7-2.2,3.1-3.6,4.4c-3.7,3.7-8.8,5.9-14.3,5.9c-1.4,0-5.1-0.8-5.1-0.8v100h154V259.4c-2.3,0.9-4.2,1.4-6.8,1.4 c-5.6,0-10.7-2.3-14.3-5.9c-1.3-1.3-2.5-2.8-3.4-4.5c-0.9,1.7-2.1,3.2-3.4,4.5c-3.7,3.7-8.7,5.9-14.3,5.9 c-5.6,0-10.7-2.3-14.3-5.9c-1.3-1.3-2.5-2.8-3.4-4.5c-0.9,1.7-2.1,3.2-3.4,4.5c-3.7,3.7-8.8,5.9-14.3,5.9s-10.7-2.3-14.3-5.9 c-1.3-1.3-2.5-2.8-3.4-4.5c-0.9,1.7-2.1,3.2-3.4,4.5c-3.7,3.7-8.7,5.9-14.3,5.9c-5.6,0-10.7-2.3-14.3-5.9 C-141,253.6-142.1,252.2-143,250.5L-143,250.5z M-120.8,269c6.7,0,11.5,4.4,13.2,10.9h37.1c1.7-6.6,6.4-10.9,13.2-10.9 c10.7,0,22.4,11,26.1,24.3l8.8,32c3.7,13.4-2.1,24.3-12.8,24.3c-9.4,0-19.6-8.4-24.4-19.6h-58.8c-4.8,11.1-15,19.6-24.4,19.6 c-10.7,0-16.4-11-12.8-24.3l8.8-32C-143.2,279.9-131.5,269-120.8,269z" class="st0"/><path d="M-102.3,297.3l-12.5,13.5h12.4v13.9h24.6v-13.9h13.2l-12.5-13.5l-12.5-13.4L-102.3,297.3z" class="st0"/></g></g></switch></svg>