<svg xmlns="http://www.w3.org/2000/svg" xmlns:svg="http://www.w3.org/2000/svg" id="svg4136" width="147.67" height="147.67" version="1.1"><metadata id="metadata4150"/><g id="g4140" fill="#fff" transform="matrix(1,0.21625,0,1,-40.867,-388.29)"><path id="path4144-2" fill="#fff" fill-opacity="1" d="m 188.19074,341.72608 c -254.609374,196.18473 -127.304694,98.09237 0,0 z m -37.6524,39.4396 c -0.71125,0.18219 -1.42096,0.40707 -2.12582,0.67508 -7.10069,2.7006 -12.11833,9.20773 -13.90462,16.8164 l -39.241187,14.92215 c -1.789459,-6.249 -6.838496,-8.93003 -13.938181,-6.23044 l -0.01146,0.006 0,-0.003 c -11.27953,4.2893 -23.675669,20.58347 -27.546312,36.20807 l -9.247365,37.30532 c -3.872219,15.62248 2.193908,24.89675 13.473852,20.60749 9.90181,-3.76507 20.665683,-16.77939 25.764528,-30.47178 l 62.205774,-23.65361 c 5.09983,9.81427 15.86106,14.6437 25.76172,10.87904 11.27796,-4.28783 17.34829,-18.1766 13.47664,-30.85504 l -9.24737,-30.27373 C 172.33077,385.21093 161.207,378.43296 150.53808,381.16574 Z m -25.89038,29.8165 0,12.60673 9.49631,-3.61158 -9.63897,15.89393 -9.64457,15.90076 -9.63337,-8.56552 -9.638972,-8.56432 10.125662,-3.84838 0,-12.61233 z" color="#000"/></g></svg>